HIERARCHY
ROOT Hips
{
	OFFSET -0.001795 -0.223333 0.028219
	CHANNELS 6 Xposition Yposition Zposition Zrotation Yrotation Xrotation 
	JOINT LeftUpLeg
	{
		OFFSET 0.069520 -0.091406 -0.006815
		CHANNELS 3 Zrotation Yrotation Xrotation
		JOINT LeftLeg
		{
			OFFSET 0.034277 -0.375199 -0.004496
			CHANNELS 3 Zrotation Yrotation Xrotation
			JOINT LeftFoot
			{
				OFFSET -0.013596 -0.397961 -0.043693
				CHANNELS 3 Zrotation Yrotation Xrotation
				JOINT LeftToe
				{
					OFFSET 0.026358 -0.055791 0.119288
					CHANNELS 3 Zrotation Yrotation Xrotation
					End Site
					{
						OFFSET 0.000000 0.000000 0.000000
					}
				}
			}
		}
	}
	JOINT RightUpLeg
	{
		OFFSET -0.067670 -0.090522 -0.004320
		CHANNELS 3 Zrotation Yrotation Xrotation
		JOINT RightLeg
		{
			OFFSET -0.038290 -0.382569 -0.008850
			CHANNELS 3 Zrotation Yrotation Xrotation
			JOINT RightFoot
			{
				OFFSET 0.015774 -0.398415 -0.042312
				CHANNELS 3 Zrotation Yrotation Xrotation
				JOINT RightToe
				{
					OFFSET -0.025372 -0.048144 0.123348
					CHANNELS 3 Zrotation Yrotation Xrotation
					End Site
					{
						OFFSET 0.000000 0.000000 0.000000
					}
				}
			}
		}
	}
	JOINT Spine
	{
		OFFSET -0.002533 0.108963 -0.026696
		CHANNELS 3 Zrotation Yrotation Xrotation
		JOINT Spine1
		{
			OFFSET 0.005487 0.135180 0.001092
			CHANNELS 3 Zrotation Yrotation Xrotation
			JOINT Spine2
			{
				OFFSET 0.001457 0.052922 0.025425
				CHANNELS 3 Zrotation Yrotation Xrotation
				JOINT Neck
				{
					OFFSET -0.002778 0.213870 -0.042857
					CHANNELS 3 Zrotation Yrotation Xrotation
					JOINT Head
					{
						OFFSET 0.005152 0.064970 0.051349
						CHANNELS 3 Zrotation Yrotation Xrotation
						End Site
						{
							OFFSET 0.000000 0.000000 0.000000
						}
					}
				}
				JOINT LeftShoulder
				{
					OFFSET 0.078845 0.121749 -0.034090
					CHANNELS 3 Zrotation Yrotation Xrotation
					JOINT LeftArm
					{
						OFFSET 0.090977 0.030469 -0.008868
						CHANNELS 3 Zrotation Yrotation Xrotation
						JOINT LeftForeArm
						{
							OFFSET 0.259612 -0.012772 -0.027456
							CHANNELS 3 Zrotation Yrotation Xrotation
							JOINT LeftHand
							{
								OFFSET 0.249234 0.008986 -0.001171
								CHANNELS 3 Zrotation Yrotation Xrotation
								End Site
								{
									OFFSET 0.000000 0.000000 0.000000
								}
							}
						}
					}
				}
				JOINT RightShoulder
				{
					OFFSET -0.081759 0.118833 -0.038615
					CHANNELS 3 Zrotation Yrotation Xrotation
					JOINT RightArm
					{
						OFFSET -0.096012 0.032551 -0.009143
						CHANNELS 3 Zrotation Yrotation Xrotation
						JOINT RightForeArm
						{
							OFFSET -0.253742 -0.013329 -0.021401
							CHANNELS 3 Zrotation Yrotation Xrotation
							JOINT RightHand
							{
								OFFSET -0.255298 0.007772 -0.005559
								CHANNELS 3 Zrotation Yrotation Xrotation
								End Site
								{
									OFFSET 0.000000 0.000000 0.000000
								}
							}
						}
					}
				}
			}
		}
	}
}
MOTION
Frames: 13
Frame Time: 0.050000
0.061088 0.949971 -0.022802 -1.886802 -2.306369 10.323363 6.719603 -0.595908 -12.717530 4.099734 -0.400832 -0.638558 -2.584295 -0.616683 10.565582 0.000000 0.000000 0.000000 -0.696947 1.261129 -12.779116 -7.032729 0.739334 0.434588 1.749808 -1.901251 11.901751 0.000000 0.000000 0.000000 1.877570 -0.236401 2.625947 -3.345388 1.540030 -1.434428 -8.861547 14.937881 0.232007 17.145769 -5.189411 -24.725964 0.000000 0.000000 0.000000 -1.242698 -28.213189 8.650987 -56.864618 -37.796827 10.818600 8.240142 -18.099559 -1.054530 0.000000 0.000000 0.000000 5.271415 24.413843 11.914329 72.362611 43.620440 26.696911 -7.409595 23.453587 -0.506039 0.000000 0.000000 0.000000 
0.060243 0.951823 -0.025666 -2.221923 -2.463676 10.497838 7.369956 -0.542275 -12.740469 4.324551 -0.388327 -1.141951 -2.526583 -0.150045 11.565161 0.000000 0.000000 0.000000 -0.062915 1.314703 -12.920399 -7.008182 0.711311 0.209611 0.920758 -3.657649 12.180968 0.000000 0.000000 0.000000 1.839815 -0.264104 3.125469 -3.578871 1.656966 -0.727693 -8.972925 16.641098 -0.494926 17.996049 -5.722059 -23.811725 0.000000 0.000000 0.000000 2.048481 -30.852581 9.335821 -50.047802 -45.086025 11.794294 15.112873 -17.514249 -2.246033 0.000000 0.000000 0.000000 1.069772 29.201998 12.940105 70.536844 56.077131 36.730844 -15.091259 18.296620 -1.561208 0.000000 0.000000 0.000000 
0.059933 0.952470 -0.026619 -2.098464 -2.602263 10.514457 7.467170 -0.541241 -13.234136 4.184749 -0.466985 0.171851 -2.693713 -0.950280 10.310018 0.000000 0.000000 0.000000 -0.459317 1.307124 -13.062446 -6.136250 0.641222 0.421270 -0.253572 -5.849003 11.964272 0.000000 0.000000 0.000000 1.688813 -0.312033 4.173896 -3.754567 1.716085 -1.724393 -9.610474 19.014585 -0.577296 18.683549 -5.996457 -23.404516 0.000000 0.000000 0.000000 5.097760 -32.774470 9.700067 -40.985625 -51.183885 10.109898 24.151510 -16.504750 -3.885541 0.000000 0.000000 0.000000 -3.633066 32.812390 12.992982 62.931805 68.959840 43.384621 -22.151511 9.694884 -1.264605 0.000000 0.000000 0.000000 
0.059849 0.952415 -0.025904 -2.321587 -1.909953 10.694189 7.276796 -0.595250 -13.931037 4.381771 -0.521458 0.697406 -3.189336 -1.733895 10.320185 0.000000 0.000000 0.000000 -0.112931 1.299345 -12.832087 -5.825887 0.599679 0.275730 -1.858108 -8.625434 11.304493 0.000000 0.000000 0.000000 2.026267 -0.350880 4.305315 -4.322430 1.978689 -1.260125 -9.665941 20.795819 -1.282466 20.179662 -7.143051 -21.948754 0.000000 0.000000 0.000000 8.052882 -34.714786 10.065982 -30.915546 -56.535796 6.425637 33.056804 -13.052344 -4.827963 0.000000 0.000000 0.000000 -7.720402 35.234717 12.559693 34.784363 77.411747 28.456278 -26.290384 0.027904 0.382211 0.000000 0.000000 0.000000 
0.059796 0.951986 -0.023962 -2.264422 -0.662883 10.509743 7.308200 -0.628616 -14.025137 4.426597 -0.590871 1.679655 -3.939399 -3.459010 9.157030 0.000000 0.000000 0.000000 -0.657156 1.155215 -11.762230 -4.713615 0.436858 -0.435628 -2.861786 -10.498018 11.916065 0.000000 0.000000 0.000000 1.883764 -0.373827 4.879349 -4.390388 1.995980 -1.811205 -9.754679 22.300649 -1.561613 20.655947 -7.533077 -21.133190 0.000000 0.000000 0.000000 12.343107 -34.572043 9.986616 -19.280793 -61.604060 -0.138221 38.839701 -9.213546 -4.712287 0.000000 0.000000 0.000000 -10.305320 36.895735 12.330338 -4.724686 79.044116 -1.653034 -26.736620 -9.690756 2.399382 0.000000 0.000000 0.000000 
0.059740 0.950629 -0.021693 -2.179898 1.168353 10.520263 7.403809 -0.685541 -14.439266 4.266035 -0.599555 2.197252 -4.870394 -5.074300 8.941127 0.000000 0.000000 0.000000 -0.592596 1.068448 -10.909835 -4.416296 0.371596 -1.052610 -3.605165 -11.680556 12.077973 0.000000 0.000000 0.000000 2.010168 -0.374113 4.622244 -4.564142 2.073777 -1.666733 -9.435707 22.909187 -1.760612 20.166862 -7.159724 -20.920803 0.000000 0.000000 0.000000 12.813514 -34.912011 10.105094 -10.243897 -62.844926 -5.585565 40.841814 -7.099040 -4.314992 0.000000 0.000000 0.000000 -9.750223 37.963039 13.198214 -20.894343 76.945252 -13.843676 -26.417983 -13.272166 3.119839 0.000000 0.000000 0.000000 
0.060040 0.949256 -0.019436 -2.445289 2.301616 10.717377 7.527604 -0.715915 -14.565371 4.511707 -0.642304 2.442421 -5.175353 -6.119373 7.901666 0.000000 0.000000 0.000000 -0.607246 1.052938 -10.791424 -4.031082 0.333681 -1.166094 -3.664231 -11.689318 12.353823 0.000000 0.000000 0.000000 2.191196 -0.363146 4.115766 -4.898475 2.215642 -1.775911 -8.684745 23.501160 -1.784386 20.981040 -7.649139 -20.792993 0.000000 0.000000 0.000000 11.170082 -34.957170 10.141911 -7.996831 -61.529190 -6.501342 40.479675 -9.597057 -5.205765 0.000000 0.000000 0.000000 -6.715427 38.004609 14.794881 -23.373992 77.374403 -16.278196 -25.830011 -13.803920 3.153029 0.000000 0.000000 0.000000 
0.060953 0.947680 -0.017208 -2.541679 3.347878 10.886243 7.717875 -0.748763 -15.069801 4.307096 -0.642277 2.848709 -5.538249 -7.071604 7.324204 0.000000 0.000000 0.000000 -0.525330 1.046376 -10.718531 -4.076128 0.353468 -1.045115 -3.941075 -12.030586 12.030779 0.000000 0.000000 0.000000 2.222617 -0.338561 3.631262 -4.740846 2.146548 -1.564449 -8.372671 23.553308 -2.203191 20.036931 -6.861742 -21.118108 0.000000 0.000000 0.000000 7.676154 -34.581250 9.989211 -9.819910 -59.187439 -4.549442 38.989927 -13.100491 -6.258743 0.000000 0.000000 0.000000 -2.050507 38.147380 17.328468 -16.827703 77.801644 -12.213462 -25.958016 -11.334962 2.699735 0.000000 0.000000 0.000000 
0.062669 0.946564 -0.014810 -2.273852 4.454950 10.846360 7.347776 -0.808685 -15.004932 4.329237 -0.627865 2.683231 -5.998554 -7.676729 7.601223 0.000000 0.000000 0.000000 -0.741541 1.002386 -10.402249 -4.441301 0.375263 -1.307849 -3.935885 -11.948658 12.631844 0.000000 0.000000 0.000000 2.468120 -0.322283 3.073259 -4.881663 2.201422 -2.103676 -7.770942 23.238845 -1.393260 19.717121 -6.667114 -21.129148 0.000000 0.000000 0.000000 4.348834 -34.312725 9.790706 -14.336322 -56.629719 -1.475177 37.210159 -17.363602 -7.424535 0.000000 0.000000 0.000000 0.995739 36.249541 17.911242 4.606106 79.396578 4.119516 -26.812359 -6.569720 1.829981 0.000000 0.000000 0.000000 
0.064823 0.945624 -0.012398 -1.927979 5.160436 10.834605 6.840509 -0.871743 -15.116379 4.413304 -0.673598 3.178615 -6.382063 -8.461436 7.431184 0.000000 0.000000 0.000000 -1.101210 0.942061 -9.933370 -4.570614 0.411797 -1.065441 -3.889288 -11.634517 11.581062 0.000000 0.000000 0.000000 2.573104 -0.245879 1.796448 -4.580043 2.073191 -1.854146 -7.660366 22.748625 -1.407229 18.458508 -5.999476 -20.830766 0.000000 0.000000 0.000000 2.362797 -32.487706 9.189856 -18.656705 -54.614515 0.945791 34.888551 -20.455193 -7.999701 0.000000 0.000000 0.000000 4.441301 33.483238 18.213463 34.179144 79.183342 27.562360 -27.731950 -1.543083 0.884370 0.000000 0.000000 0.000000 
0.067193 0.945027 -0.010104 -1.654155 5.397184 10.670299 6.511367 -0.871318 -14.449805 4.337489 -0.622182 2.645514 -6.276093 -8.235929 7.413712 0.000000 0.000000 0.000000 -1.433883 0.897872 -9.612448 -4.898073 0.452727 -0.983637 -3.730722 -11.256820 11.275099 0.000000 0.000000 0.000000 3.010497 -0.194944 0.673388 -4.497710 2.039226 -2.265010 -7.441888 22.105470 -0.706013 17.506605 -5.637543 -20.354320 0.000000 0.000000 0.000000 0.182376 -30.227022 8.388613 -21.925378 -52.997112 2.718559 32.926831 -22.549347 -8.182266 0.000000 0.000000 0.000000 5.913919 30.024184 16.986038 61.245771 75.269417 47.056885 -29.997648 4.711422 -0.337738 0.000000 0.000000 0.000000 
0.069573 0.944788 -0.008105 -1.074042 5.895594 10.640394 6.400484 -0.870221 -13.993468 3.445587 -0.487307 2.302280 -6.323760 -8.172552 7.574717 0.000000 0.000000 0.000000 -1.924632 0.876884 -9.678467 -5.234241 0.542559 -0.354276 -3.937839 -11.551051 10.932623 0.000000 0.000000 0.000000 2.772549 -0.120551 -0.259553 -3.914723 1.789992 -2.490206 -7.365668 20.593539 -0.693532 16.719084 -5.482784 -19.716009 0.000000 0.000000 0.000000 -1.085810 -27.987058 7.674150 -24.522848 -50.436223 3.996095 32.212145 -26.275251 -9.177499 0.000000 0.000000 0.000000 8.150620 25.429965 15.359280 71.736045 68.032266 48.685316 -33.008131 14.760692 -2.586757 0.000000 0.000000 0.000000 
0.071860 0.944449 -0.005741 -1.235091 5.222751 10.368697 6.184712 -0.831369 -13.270397 3.258094 -0.432460 1.771053 -5.493973 -6.773787 7.348155 0.000000 0.000000 0.000000 -1.544500 0.876442 -9.434892 -5.832849 0.602833 -0.321211 -3.689915 -11.088049 10.467921 0.000000 0.000000 0.000000 2.937048 -0.054318 -1.319353 -3.536513 1.628585 -2.410387 -7.011428 18.765008 -0.450749 16.010442 -5.631660 -18.589240 0.000000 0.000000 0.000000 -2.949082 -23.816400 6.317331 -27.293195 -47.873778 5.225944 32.872768 -30.377063 -10.657819 0.000000 0.000000 0.000000 10.229836 20.735148 13.205234 71.930934 58.362749 39.294684 -36.519190 28.987407 -6.259120 0.000000 0.000000 0.000000 
